<svg width="130" height="130" viewBox="0 0 130 130" fill="none" xmlns="http://www.w3.org/2000/svg">
<circle opacity="0.8" cx="65" cy="65" r="65" fill="#3483E5"/>
<path d="M73.9215 49.5474C85.1361 56.0222 90.7434 59.2595 91.2436 64.0183C91.3122 64.671 91.3122 65.329 91.2436 65.9816C90.7434 70.7404 85.1361 73.9778 73.9215 80.4526V80.4526C62.7068 86.9274 57.0995 90.1648 52.7282 88.2185C52.1287 87.9516 51.5588 87.6226 51.0279 87.2369C47.1567 84.4243 47.1567 77.9495 47.1567 65V65C47.1567 52.0504 47.1567 45.5757 51.0279 42.7631C51.5588 42.3774 52.1287 42.0484 52.7282 41.7815C57.0995 39.8352 62.7068 43.0726 73.9215 49.5474V49.5474Z" fill="white"/>
</svg>
