<svg width="62" height="52" viewBox="0 0 62 52" fill="none" xmlns="http://www.w3.org/2000/svg">
<path d="M13.8091 51.7166C9.58182 51.7166 6.2 50.158 3.66364 47.0409C1.22121 43.8292 0 40.0509 0 35.7057C0 32.1163 0.657576 28.7629 1.97273 25.6458C3.28788 22.5286 4.93182 19.6948 6.90455 17.1444C8.97121 14.594 11.1318 12.3742 13.3864 10.485C15.7348 8.50136 17.8955 6.84832 19.8682 5.52589C21.8409 4.10899 23.4379 3.06994 24.6591 2.40872C25.9742 1.7475 26.5849 1.41689 26.4909 1.41689L29.7318 5.80926C28.8864 6.1871 27.7591 6.94278 26.35 8.07629C24.9409 9.11535 23.5318 10.3906 22.1227 11.9019C20.8076 13.4133 19.6333 15.0663 18.6 16.861C17.5667 18.5613 17.05 20.2143 17.05 21.8202C17.05 22.7648 17.6136 23.7094 18.7409 24.654C19.8682 25.5041 21.0894 26.5431 22.4045 27.7711C23.7197 28.9046 24.9409 30.3215 26.0682 32.0218C27.1955 33.6276 27.7591 35.6113 27.7591 37.9728C27.7591 40.0509 27.3364 41.9401 26.4909 43.6403C25.7394 45.3406 24.7061 46.8047 23.3909 48.0327C22.1697 49.1662 20.7136 50.0636 19.0227 50.7248C17.3318 51.386 15.5939 51.7166 13.8091 51.7166ZM48.4727 52C46.3121 52 44.3394 51.5277 42.5545 50.5831C40.7697 49.6385 39.2197 48.3633 37.9045 46.7575C36.5894 45.1517 35.5561 43.3097 34.8045 41.2316C34.147 39.059 33.8182 36.7448 33.8182 34.2888C33.8182 29.3769 34.8515 24.8429 36.9182 20.6866C39.0788 16.436 41.4273 12.7993 43.9636 9.77657C46.9697 6.1871 50.3985 2.92825 54.25 0L58.3364 3.82561C57.4909 4.39237 56.4576 5.28974 55.2364 6.51771C54.1091 7.74569 53.0288 9.20981 51.9955 10.9101C51.0561 12.5159 50.2106 14.2162 49.4591 16.0109C48.8015 17.8056 48.4727 19.5531 48.4727 21.2534C48.4727 22.3869 49.1773 23.3315 50.5864 24.0872C51.9955 24.8429 53.5455 25.7875 55.2364 26.921C56.9273 28.0545 58.4773 29.5186 59.8864 31.3134C61.2955 33.0136 62 35.4223 62 38.5395C62 40.4287 61.6242 42.1762 60.8727 43.782C60.1212 45.3878 59.0879 46.8047 57.7727 48.0327C56.5515 49.2607 55.0955 50.2525 53.4045 51.0082C51.8076 51.6694 50.1636 52 48.4727 52Z" fill="white" fill-opacity="0.26"/>
</svg>
